<svg width="51" height="50" fill="none" xmlns="http://www.w3.org/2000/svg"><path fill-rule="evenodd" clip-rule="evenodd" d="M2.707 5.913a3.83 3.83 0 0 1 3.83-3.83h38.17a3.827 3.827 0 0 1 3.833 3.83v38.17a3.83 3.83 0 0 1-3.83 3.834H6.535a3.829 3.829 0 0 1-3.829-3.831V5.913Zm18.142 13.645h6.206v3.117c.896-1.792 3.187-3.404 6.631-3.404 6.602 0 8.167 3.569 8.167 10.116v12.13h-6.681V30.879c0-3.729-.896-5.833-3.171-5.833-3.156 0-4.469 2.269-4.469 5.833v10.638h-6.683V19.558ZM9.39 41.231h6.684v-21.96H9.39V41.23Zm7.64-29.123a4.298 4.298 0 1 1-8.594.19 4.298 4.298 0 0 1 8.594-.19Z" fill="#000"/></svg>