<svg xmlns="http://www.w3.org/2000/svg" viewBox="0 0 50 50" width="94" height="94"><path d="M25 12C11.543 12 1 17.71 1 25s10.543 13 24 13 24-5.71 24-13-10.543-13-24-13Zm-2.492 4h2.62l-.831 4h2.34c1.484 0 2.48.207 3.047.727.554.511.722 1.351.5 2.496L29.144 28H26.48l.957-4.418c.118-.605.07-1.027-.132-1.25-.203-.223-.649-.332-1.317-.332h-2.097l-1.266 6H20ZM11 20h5.332c2.543 0 4.082 1.703 3.48 4.246C19.113 27.2 17.239 28 13.793 28h-1.648l-.524 3H8.973Zm21 0h5.332c2.543 0 4.082 1.703 3.48 4.246C40.114 27.2 38.239 28 34.794 28h-1.648l-.524 3h-2.648Zm-18.73 2-.754 4h1.71c1.481 0 2.856-.168 3.086-2.375.086-.855-.269-1.625-1.98-1.625Zm21 0-.754 4h1.71c1.481 0 2.856-.168 3.087-2.375.085-.855-.27-1.625-1.981-1.625Z"/></svg>