<svg width="94" height="94" fill="none" xmlns="http://www.w3.org/2000/svg"><g clip-path="url('#clip0_120_460')" fill="#000"><path d="M19.896 0h4.238v4.187h3.878V0h4.238v12.674h-4.238V8.433h-3.878v4.241H19.9V0h-.003ZM37.819 4.203h-3.73V0h11.7v4.203h-3.733v8.471H37.82V4.203ZM47.647 0h4.418l2.718 4.453L57.497 0h4.418v12.674h-4.218V6.392L54.783 10.9h-.075L51.79 6.396v6.278h-4.143V0ZM64.022 0h4.241v8.487h5.954v4.191H64.022V0Z"/><path fill-rule="evenodd" clip-rule="evenodd" d="M19.764 86.449 11.75 18.475h70.5L74.233 86.44 46.96 94l-27.197-7.551ZM35.966 49.24l-.76-8.538h31.901l.744-8.335H26.101l2.248 25.212h28.893l-.967 10.81-9.298 2.514h-.008l-9.283-2.506-.595-6.647h-8.374l1.167 13.09 17.077 4.739 17.104-4.74 2.084-23.358.203-2.237H35.967v-.004Z"/></g><defs><clipPath id="clip0_120_460"><path fill="#fff" d="M0 0h94v94H0z"/></clipPath></defs></svg>