<svg width="103" height="103" fill="none" xmlns="http://www.w3.org/2000/svg"><path d="M93.344 0H9.656C4.346 0 0 4.345 0 9.656v83.688C0 98.654 4.345 103 9.656 103h83.688c5.31 0 9.656-4.345 9.656-9.656V9.656C103 4.346 98.655 0 93.344 0Zm-75.64 70.813h-3.22l-1.609-9.657 1.61-9.656h3.218l1.61 9.656-1.61 9.657Zm12.874 0H27.36L25.75 57.937l1.61-12.874h3.218l1.61 12.874-1.61 12.876Zm12.875 0h-3.219L38.625 51.5l1.61-19.313h3.218l1.61 19.313-1.61 19.313Zm39.552 0-30.314-.02a1.339 1.339 0 0 1-1.185-1.287V34.782c0-.644.22-.966 1.043-1.288a19.312 19.312 0 0 1 26.233 16.294 10.951 10.951 0 0 1 15.167 10.1c0 6.038-4.906 10.925-10.944 10.925Z" fill="#C94A14"/></svg>