<svg xmlns="http://www.w3.org/2000/svg" viewBox="0 0 50 50" width="94" height="94"><path d="M43.03 27.802a10.286 10.286 0 0 0-4.53 1.054c-.464-.926-.934-1.741-1.013-2.347-.092-.707-.199-1.129-.088-1.972.111-.843.599-2.036.591-2.125-.007-.089-.109-.518-1.117-.526-1.008-.007-1.87.194-1.972.46a9.797 9.797 0 0 0-.416 1.49c-.177.914-2.012 4.174-3.055 5.879-.341-.666-.631-1.252-.691-1.716-.092-.707-.199-1.129-.088-1.972.111-.843.599-2.036.591-2.125-.007-.089-.109-.518-1.117-.526-1.008-.007-1.87.194-1.972.46-.102.266-.21.888-.416 1.49-.207.602-2.647 6.039-3.286 7.448a43.557 43.557 0 0 1-.809 1.689l-.001-.002-.034.071c-.171.335-.273.521-.273.521l.003.007c-.136.246-.281.475-.353.475-.05 0-.151-.656.022-1.555.363-1.886 1.235-4.828 1.227-4.929-.004-.052.162-.564-.57-.833-.711-.26-.965.174-1.03.175-.063.001-.11.153-.11.153s.793-3.308-1.512-3.308c-1.44 0-3.436 1.576-4.42 3.004a1269.137 1269.137 0 0 0-4.974 2.727l-.108-.118c-2.794-2.981-7.958-5.089-7.739-9.096.08-1.457.586-5.293 9.924-9.946 7.649-3.812 13.773-2.763 14.831-.438 1.512 3.321-3.273 9.494-11.216 10.384-3.027.339-4.62-.834-5.017-1.271-.417-.46-.479-.481-.635-.394-.254.141-.093.547 0 .789.237.617 1.21 1.712 2.87 2.256 1.46.479 5.013.742 9.311-.92 4.813-1.862 8.571-7.041 7.468-11.37-1.123-4.403-8.423-5.85-15.332-3.396-4.112 1.461-8.563 3.754-11.764 6.747-3.806 3.56-4.412 6.658-4.162 7.952.889 4.6 7.228 7.595 9.767 9.815l-.35.193c-1.273.63-6.105 3.159-7.314 5.831-1.371 3.031.218 5.206 1.271 5.499 3.26.907 6.606-.725 8.404-3.407 1.798-2.681 1.578-6.172.753-7.766l-.032-.059.996-.587c.648-.38 1.284-.735 1.836-1.036-.309.846-.535 1.86-.653 3.325-.138 1.721.567 3.945 1.49 4.82.406.385.895.394 1.205.394 1.074 0 1.564-.893 2.103-1.95.662-1.296 1.249-2.804 1.249-2.804s-.737 4.075 1.271 4.075c.731 0 1.467-.949 1.795-1.432l.001.008.056-.095c.076-.116.119-.19.119-.19l.004-.021c.294-.51.946-1.674 1.924-3.594 1.263-2.48 2.475-5.586 2.475-5.586s.113.76.482 2.015c.217.739.679 1.556 1.043 2.339-.293.407-.473.64-.473.64l.005.012a23.86 23.86 0 0 1-.772.974c-.997 1.188-2.185 2.544-2.344 2.936-.187.461-.143.801.219 1.073.264.199.735.23 1.227.197.896-.06 1.527-.283 1.838-.418a6.156 6.156 0 0 0 1.58-.831c.978-.719 1.568-1.748 1.512-3.111-.031-.751-.271-1.495-.574-2.198.089-.128.178-.256.267-.387 1.542-2.255 2.738-4.732 2.738-4.732s.113.76.482 2.015c.187.636.556 1.329.887 2.009-1.45 1.178-2.349 2.547-2.662 3.445-.577 1.661-.125 2.414.723 2.585.384.078.927-.098 1.335-.271a6.172 6.172 0 0 0 1.688-.868c.978-.719 1.919-1.726 1.862-3.089-.026-.62-.194-1.236-.422-1.828 1.229-.512 2.821-.797 4.848-.56 4.349.508 5.202 3.223 5.039 4.359-.163 1.137-1.075 1.761-1.38 1.95-.305.189-.398.254-.372.394.037.204.178.196.438.152.358-.06 2.283-.924 2.366-3.022.104-2.658-2.448-5.583-6.968-5.559zm-33.518 11.3c-1.44 1.571-3.453 2.165-4.316 1.665-.932-.54-.563-2.854 1.205-4.521 1.077-1.016 2.468-1.952 3.391-2.529l.893-.537.097-.055-.001-.002.223-.134c.643 2.374.02 4.464-1.492 6.113zm10.493-7.134c-.502 1.223-1.552 4.352-2.191 4.184-.549-.144-.883-2.523-.11-4.863.389-1.178 1.22-2.586 1.709-3.133.786-.879 1.652-1.167 1.862-.81.269.454-.955 3.855-1.27 4.622zm8.67 4.137c-.213.111-.408.181-.498.127-.067-.04.088-.186.088-.186s1.084-1.167 1.512-1.698c.248-.309.537-.676.85-1.086.003.041.004.082.004.122-.004 1.398-1.354 2.341-1.956 2.721zm6.679-1.523c-.159-.113-.132-.478.389-1.614.205-.446.672-1.198 1.485-1.916.094.295.152.578.15.842-.011 1.759-1.266 2.416-2.024 2.688z"/></svg>