<svg width="94" height="94" fill="none" xmlns="http://www.w3.org/2000/svg"><path fill-rule="evenodd" clip-rule="evenodd" d="m91.818 69.126-.421 1.091c-7.17 13.962-19.874 22.528-37.996 22.906-8.471.174-16.543-2-21.816-4.363-11.379-5.113-20.95-14.594-26.177-24.724-7.498-14.522-8.85-34.723 6.74-49.811.241 0-1.89 3.271-1.65 3.271l-.43 1.397C-1.165 54.065 33.449 84.208 67.095 80.76c8.087-.83 18.398-5.257 24.724-11.635Z" fill="#21609B"/><path fill-rule="evenodd" clip-rule="evenodd" d="M71.457 54.583c8.465.057 17.307-3.9 22.543-9.453C89.42 56.757 76.155 64.23 58.37 61.855c-14.894-1.993-29.08-16.98-30.542-31.997-1.068-10.929 2.74-17.451 9.017-25.364-2.181 4.139-2.997 7.33-3.2 9.365-2.384 23.642 18.886 40.6 37.813 40.724" fill="#21609B"/><path fill-rule="evenodd" clip-rule="evenodd" d="M93.148 25.218c-1.316 3.019-8.892 8.719-12.238 9.432-13.25 2.822-21.735-3.46-26.18-10.61-.66-1.068-1.881-3.983-2.1-4.726-1.724-5.86-.932-14.726 4.21-19.314-1.549 4.363-1.775 9.431-.96 12.726.495 1.992 2 5.47 3.506 7.657 2.74 3.985 4.478 4.953 7.998 7.069 1.586.952 3.287 1.716 4.021 1.926 3.338.983 10.385 3.57 21.744-4.16" fill="#21609B"/></svg>