<svg width="94" height="94" viewBox="0 0 50 50" fill="none" xmlns="http://www.w3.org/2000/svg"><path d="M37.5 45.833h-25A8.333 8.333 0 0 1 4.165 37.5v-25a8.333 8.333 0 0 1 8.333-8.334h25a8.333 8.333 0 0 1 8.334 8.334v25a8.333 8.333 0 0 1-8.334 8.333Zm-25-37.5A4.167 4.167 0 0 0 8.332 12.5v25a4.167 4.167 0 0 0 4.166 4.166h25a4.167 4.167 0 0 0 4.167-4.166v-25a4.167 4.167 0 0 0-4.167-4.167h-25ZM32.836 34.95a6.642 6.642 0 0 1-4.898-1.875 7.837 7.837 0 0 1-1.933-5.604 7.916 7.916 0 0 1 1.99-5.417 7.13 7.13 0 0 1 5.389-2.227h.485V15.66c0-.325.265-.59.59-.591h2.743a.604.604 0 0 1 .417.145.549.549 0 0 1 .171.417V31.63c-.01.552.019 1.104.083 1.652v.052a.596.596 0 0 1-.116.369.71.71 0 0 1-.252.196 10.808 10.808 0 0 1-4.63 1.054l-.04-.002ZM30.928 24.29l-.01.013a4.629 4.629 0 0 0-.937 3.031 4.717 4.717 0 0 0 .922 3.175 2.766 2.766 0 0 0 2.186.904c.262.005.525-.023.781-.079v-8.018a2.73 2.73 0 0 0-.591-.06 2.992 2.992 0 0 0-2.35 1.04v-.006Zm-5.46 10.417h-3.023a.746.746 0 0 1-.737-.458l-.438-.917-.01-.023-.427-.852-.134-.277c-.664-1.37-1.35-2.783-2.037-4.237a261.592 261.592 0 0 1-2.952 6.314v.021l-.01.019a.834.834 0 0 1-.284.285.737.737 0 0 1-.392.104h-2.856a.55.55 0 0 1-.548-.373.586.586 0 0 1 .09-.51l4.643-8.877-4.491-8.988a.562.562 0 0 1-.025-.6.57.57 0 0 1 .487-.273h2.988a.775.775 0 0 1 .417.096c.129.08.229.198.283.34a413.62 413.62 0 0 1 2.881 6.177c1.023-2.292 2.11-4.62 2.84-6.165l.01-.022.013-.021v-.023c.052-.09.117-.17.193-.24a.692.692 0 0 1 .46-.16h2.799a.554.554 0 0 1 .514.314.595.595 0 0 1-.048.548l-4.493 8.723 4.754 9.167a.624.624 0 0 1 .06.54.554.554 0 0 1-.527.364v.004Z" fill="#000"/></svg>