<svg width="94" height="94" viewBox="0 0 50 50" fill="none" xmlns="http://www.w3.org/2000/svg"><g clip-path="url('#clip0_98_82')"><path d="M41.603 11.965c2.614 1.288 8.585 7.808 8.392 8.238-.195.43-3.045 2.81-3.904 3.747-1.864 4.28-3.546 7.344-4.15 3.931-.686 4.104-2.156 3.745-2.73 5.75-.837 4.125-3.247 4.266-4.341 5.035-1.003 1.004-2.44.425-3.55.994-2.818 1.052-9.475 1.238-12.136.039-1.424-.614-2.136.34-6.155-2.412-2.14-2.129-1.536-3.097-2.277-4.527-1.223-2.11-1.656-.733-2.6-5.447-.285 3.806-2.339 1.77-4.232-3.385 0 0-3.722-3.3-3.915-3.725-.196-.43 5.775-6.95 8.393-8.238 7.42-3.365 25.026-3.276 33.205 0ZM28.922 23.3c4.009 1.358 7.797 5.67 7.171 9.628 0 2.054-.183 3.444-.482 4.38 3.423-2.247 1.923-2.969 3.285-5.128 1.285-2.193 1.543-1.39 2.207-4.359-.398-2.97-.782-8.236-1.256-9.809-.415-1.35-2.422-4.158-3.716-5.876-6.313-2.437-18.813-1.655-22.02-.096-1.293 1.707-3.387 4.611-3.811 6-.449 1.49-.856 6.61-1.232 9.64.31 2.881 2.483 4.155 2.807 5.68.347 2.456 1.468 3.292 3.024 4.13-.348-.955-.55-2.401-.55-4.62-.649-4.58 3.8-8.476 7.404-9.6.997-2.644 6.386-2.4 7.169.03Zm.698 11.036c0-2.798-2.293-5.124-4.01-5.264l.101-4.114c3.317-.21 2.932-2.64-.418-2.81-2.574.022-4.38 2.392-.431 2.805l-.003 4.105c-1.717 0-3.978 2.372-3.978 5.221.267-2.86 2.495-4.339 4.53-4.277 1.983.06 3.772 1.587 4.209 4.334ZM16.234 20.547a.897.897 0 1 0-1.795 0 .897.897 0 0 0 1.795 0Zm-3.516 4.497c-2.284-1.317-2.284-4.627 0-5.944 2.285-1.317 5.156.338 5.156 2.972s-2.871 4.289-5.155 2.972Zm21.506 0c-2.285-1.317-2.285-4.627 0-5.944 2.284-1.317 5.155.338 5.155 2.972s-2.871 4.289-5.155 2.972Zm1.72-4.497a.897.897 0 1 0-1.794 0 .897.897 0 0 0 1.795 0Z" fill="#000"/></g><defs><clipPath id="clip0_98_82"><path fill="#fff" d="M0 0h50v50H0z"/></clipPath></defs></svg>