<svg width="94" height="94" viewBox="0 0 50 50" fill="none" xmlns="http://www.w3.org/2000/svg"><g clip-path="url('#clip0_60_136')"><path d="M28.483 18.458c-.928-.733-3.54.497-4.271 2.328-.928 2.328-2.303 5.73-3.655 7.21-1.423 1.571-1.563.359-1.423-.544.334-2.124 2.409-7.04 3.54-8.432-.423-.626-3.165-.537-5.078 2.433-.708 1.116-2.336 4.842-4.142 7.78-.399.634-.896.187-.513-1.294.432-1.717 1.71-6.437 3.346-10.156 4.304-.847 8.862-1.449 12.36-1.456.472-.13.79-.554 0-.579-3.01-.098-7.535.261-11.774.79.814-1.629 1.692-2.922 2.58-3.468-.97-.61-2.923-.375-4.046 1.286a21.258 21.258 0 0 0-1.456 2.588c-3.11.489-5.763 1.033-7.113 1.537-1.4.538-1.245 2.23-.39 1.913 1.765-.66 4.157-1.352 6.81-1.961-1.692 3.817-3.01 8.317-3.328 10.148-.789 4.452 1.97 4.427 3.32 2.678 1.457-1.928 4.509-8.675 4.982-9.39.139-.236.334-.114.228.106-3.402 6.803-3.117 9.431-.35 8.845 1.245-.268 3.394-2.4 3.955-3.507.114-.27.358-.244.301-.13-2.164 5.615-4.907 10.156-6.754 11.58-1.677 1.278-2.922-1.507 3.018-5.502.88-.594.464-1.408-.52-1.131-3.069.489-11.84 3.272-15.698 5.94-.294.203-.561.366-.546.79.008.243.432.154.635.024 4.989-2.986 9.065-4.157 13.753-5.134.056.025.139.04.195.008.22-.049.203.066.066.155-.227.138-.464.26-.708.365-3.158 1.238-5.063 3.955-4.386 5.347.57 1.197 3.663.766 5.119-.025 3.589-1.945 6.194-5.762 7.975-11.027 1.554-4.671 3.515-9.96 3.972-10.115h-.003ZM7.7 33.528c1.302-1.547 1.449-3.15.447-6.128-.634-1.88-1.692-3.328-.92-4.5.83-1.245 2.587-.04 1.123 1.628l.294.203c1.758.203 2.62-2.204 1.31-2.889-3.459-1.806-6.485 1.669-5.15 5.69.57 1.7 1.374 3.507.724 4.948-.56 1.228-1.643 1.953-2.369 1.978-1.514.081-.504-3.394 1.238-4.256.155-.074.366-.18.163-.432-2.149-.243-3.41.749-4.135 2.133-2.108 4.028 4.013 5.525 7.275 1.628v-.003Zm41.627-4.297c-5.835-.765-18.425.252-23.983 1.733-1.652.431-1.197 1.302-.358 1.14.016 0 .375-.09.383-.09 4.566-.887 15.64-1.669 22.103-.431.781.139 3.11-2.19 1.856-2.352h-.001Zm-19.214-.683c1.628-.814 4.045-5.851 5.63-8.609.115-.203.318-.04.204.099-4.02 6.917-2.31 7.723-.725 7.617 2.123-.122 4.086-3.181 4.517-3.866.18-.269.285-.048.18.14-.106.316-.472.879-.814 1.643-.49 1.083.025 1.497.447 1.692.66.317 2.465.114 2.742-.992-1.806-.04 2.523-8.561 2.962-9.083-1.204-.7-3.076.066-3.93 1.742-1.815 3.597-3.346 6.502-4.298 6.552-1.856.098 2.14-8.024 2.783-8.277-.39-.578-2.922-.334-4.337 1.857-.505.789-3.605 6.282-4.37 7.186-1.352 1.603-1.45.228-1.076-1.375.13-.546.35-1.246.627-2.02.895-2.009 1.847-2.652 2.433-3.295 3.93-4.362 6.176-7.901 5.289-9.286-.79-1.237-3.427-.692-5.111 1.857-3.117 4.672-5.99 11.067-6.364 13.989-.358 2.93 1.765 3.14 3.206 2.433l.005-.003Zm15.364-6.868c.497 1.22 1.245 2.425.797 3.5-.366.91-.847 1.294-1.383 1.383-.749.121-.546-2.23.74-2.93.114-.056.277-.366.122-.545-1.628-.09-2.539.684-3.036 1.717-1.44 3.018 3.255 3.84 5.558.88.911-1.18.952-2.352.074-4.477-.561-1.352-1.408-2.352-.88-3.247.578-.936 1.945-.122.92 1.131l.228.13c1.335.073 1.88-1.702.863-2.149-2.678-1.146-5.185 1.743-4.005 4.607h.002Zm-13.713-1.692c.14-.318.228-.407.472-.944 1.4-3.077 3.158-6.324 4.363-7.828.748-.79 1.806.276-.099 3.198a29.258 29.258 0 0 1-3.784 4.72v.016c-.35.39-.667.725-.814.911-.099.13-.211.106-.14-.073h.002Z" fill="#000"/></g><defs><clipPath id="clip0_60_136"><path fill="#fff" d="M0 0h50v50H0z"/></clipPath></defs></svg>