<svg width="50" height="50" fill="none" xmlns="http://www.w3.org/2000/svg"><path fill-rule="evenodd" clip-rule="evenodd" d="M15.553 2.22c2.444-.112 3.223-.137 9.448-.137 6.225 0 7.004.027 9.445.138 2.442.11 4.109.5 5.567 1.064a11.275 11.275 0 0 1 4.059 2.646 11.194 11.194 0 0 1 2.641 4.057c.567 1.458.954 3.125 1.067 5.562.112 2.448.137 3.227.137 9.45 0 6.225-.027 7.004-.137 9.448-.11 2.438-.5 4.104-1.067 5.563a11.244 11.244 0 0 1-2.642 4.06 11.238 11.238 0 0 1-4.058 2.642c-1.458.566-3.125.954-5.562 1.066-2.446.113-3.225.138-9.45.138s-7.005-.027-9.448-.138c-2.438-.11-4.104-.5-5.563-1.067a11.243 11.243 0 0 1-4.06-2.641 11.233 11.233 0 0 1-2.644-4.058c-.565-1.459-.952-3.125-1.065-5.563-.112-2.448-.137-3.227-.137-9.45 0-6.225.027-7.004.137-9.446.11-2.441.5-4.108 1.065-5.566a11.242 11.242 0 0 1 2.646-4.059 11.233 11.233 0 0 1 4.056-2.644c1.459-.564 3.125-.952 5.563-1.064h.002ZM34.26 6.347c-2.417-.11-3.142-.133-9.26-.133-6.12 0-6.844.022-9.26.133-2.236.102-3.449.475-4.257.79-1.069.416-1.833.91-2.635 1.712a7.108 7.108 0 0 0-1.713 2.635c-.315.809-.687 2.021-.79 4.257-.11 2.416-.133 3.141-.133 9.26s.023 6.844.133 9.26c.103 2.236.475 3.448.79 4.257a7.113 7.113 0 0 0 1.713 2.635 7.113 7.113 0 0 0 2.635 1.713c.808.314 2.02.687 4.256.79 2.417.11 3.14.133 9.26.133 6.122 0 6.844-.023 9.261-.134 2.235-.102 3.448-.475 4.256-.79 1.07-.416 1.834-.91 2.636-1.712a7.112 7.112 0 0 0 1.712-2.635c.315-.809.688-2.021.79-4.257.11-2.416.133-3.141.133-9.26s-.023-6.844-.133-9.26c-.102-2.236-.475-3.448-.79-4.257-.416-1.068-.91-1.833-1.712-2.635a7.11 7.11 0 0 0-2.636-1.713c-.808-.314-2.02-.687-4.256-.79ZM22.074 32.065a7.644 7.644 0 0 0 8.333-12.471 7.646 7.646 0 1 0-8.333 12.47ZM16.672 16.67a11.778 11.778 0 1 1 16.657 16.656 11.778 11.778 0 0 1-16.657-16.656Zm22.72-1.696a2.782 2.782 0 0 0 .67-3.073 2.785 2.785 0 1 0-.67 3.073Z" fill="#000"/></svg>