<svg width="93" height="94" fill="none" xmlns="http://www.w3.org/2000/svg"><g clip-path="url('#clip0_120_468')" fill="#000"><path d="M29.07 0h9.99v4.222h-5.812v4.222h5.812v4.222h-9.99V0ZM41.055 0h9.993v3.674h-5.812v.732h5.812v8.445h-9.993V8.997h5.812V8.26h-5.812V0ZM53.049 0h9.986v3.674h-5.813v.732h5.813v8.445h-9.986V8.997h5.812V8.26H53.05V0Z"/><path fill-rule="evenodd" clip-rule="evenodd" d="m46.465 94-26.908-7.551-7.932-67.974h69.75L73.447 86.44 46.465 94ZM27.307 49.244l.74 8.335h28.586l-.957 10.81-9.2 2.514h-.007l-9.184-2.506-.589-6.647h-8.28l1.154 13.09 16.895 4.739 16.922-4.74 2.062-23.358.201-2.237 1.488-16.877H25.823l.752 8.339h31.527l-.752 8.538H27.307Z"/></g><defs><clipPath id="clip0_120_468"><path fill="#fff" d="M0 0h93v94H0z"/></clipPath></defs></svg>