<svg width="50" height="50" fill="none" xmlns="http://www.w3.org/2000/svg"><path d="M49.255 10.285a19.437 19.437 0 0 1-5.573 1.527 9.73 9.73 0 0 0 4.267-5.37 19.375 19.375 0 0 1-6.162 2.354 9.708 9.708 0 0 0-16.538 8.854A27.561 27.561 0 0 1 5.245 7.508a9.7 9.7 0 0 0-1.313 4.88 9.708 9.708 0 0 0 4.317 8.079 9.68 9.68 0 0 1-4.396-1.215v.125a9.708 9.708 0 0 0 7.786 9.517 9.776 9.776 0 0 1-4.384.166 9.71 9.71 0 0 0 9.067 6.738 19.475 19.475 0 0 1-12.054 4.156c-.774 0-1.548-.045-2.317-.135a27.447 27.447 0 0 0 14.875 4.36c17.854 0 27.615-14.787 27.615-27.612 0-.417-.01-.838-.03-1.255a19.73 19.73 0 0 0 4.84-5.02l.004-.007Z" fill="#000"/></svg>