<svg width="50" height="50" viewBox="3 5 44 44" fill="none" xmlns="http://www.w3.org/2000/svg"><path d="M43.333 8.29C41.806 6.763 39.97 6 37.82 6H11.804c-2.15 0-3.987.763-5.514 2.29C4.763 9.817 4 11.654 4 13.804V39.82c0 2.15.763 3.987 2.29 5.514 1.527 1.527 3.364 2.29 5.514 2.29h6.071c.396 0 .694-.015.894-.042a1.05 1.05 0 0 0 .596-.352c.198-.208.298-.51.298-.906l-.015-1.844a417.41 417.41 0 0 1-.013-2.791l-.625.108c-.395.073-.895.104-1.502.096a11.578 11.578 0 0 1-1.883-.19 4.222 4.222 0 0 1-1.817-.812 3.44 3.44 0 0 1-1.191-1.667l-.271-.625a6.766 6.766 0 0 0-.854-1.381c-.388-.507-.782-.848-1.18-1.03l-.187-.135a1.995 1.995 0 0 1-.354-.325 1.507 1.507 0 0 1-.244-.38c-.054-.126-.008-.23.136-.312.145-.083.406-.122.787-.122l.542.083c.36.07.808.287 1.34.648.537.366.986.848 1.314 1.41.416.74.916 1.304 1.504 1.694.588.387 1.18.583 1.775.583a7.75 7.75 0 0 0 1.546-.135c.42-.087.83-.224 1.219-.408.162-1.209.604-2.142 1.327-2.792a18.55 18.55 0 0 1-2.777-.488 11.07 11.07 0 0 1-2.548-1.056 7.292 7.292 0 0 1-2.182-1.817c-.577-.722-1.052-1.67-1.422-2.843-.37-1.175-.555-2.532-.555-4.067 0-2.185.713-4.046 2.14-5.583-.667-1.642-.604-3.486.19-5.525.524-.165 1.302-.042 2.33.364 1.03.406 1.784.754 2.263 1.042.48.292.863.535 1.152.733a19.238 19.238 0 0 1 5.202-.704c1.79 0 3.523.236 5.205.704l1.029-.65a14.577 14.577 0 0 1 2.494-1.191c.958-.363 1.687-.46 2.195-.298.813 2.041.884 3.883.215 5.527 1.427 1.535 2.142 3.396 2.142 5.583 0 1.535-.186 2.896-.557 4.077-.368 1.184-.848 2.131-1.435 2.846a7.604 7.604 0 0 1-2.194 1.802c-.875.488-1.725.84-2.548 1.056-.912.234-1.84.398-2.777.49.938.812 1.409 2.094 1.409 3.846v6.479c0 .306.043.554.135.744a.75.75 0 0 0 .433.393c.2.071.375.117.53.134.154.02.374.027.662.027h6.07c2.15 0 3.988-.763 5.515-2.29 1.525-1.525 2.29-3.364 2.29-5.514V13.804c0-2.15-.765-3.987-2.292-5.514h.002Z" fill="#000"/></svg>