<svg width="94" height="94" viewBox="0 0 50 50" fill="none" xmlns="http://www.w3.org/2000/svg"><g clip-path="url('#clip0_60_138')"><path fill-rule="evenodd" clip-rule="evenodd" d="M17.532 0c-5.098 0-9.198 4.277-9.198 9.517 0 3.185 1.517 6.014 3.848 7.741A9.61 9.61 0 0 0 8.334 25c0 3.188 1.517 6.015 3.848 7.742a9.61 9.61 0 0 0-3.848 7.741c0 5.24 4.1 9.517 9.198 9.517 5.096 0 9.198-4.277 9.198-9.517v-8.045a8.973 8.973 0 0 0 5.74 2.08c5.097-.001 9.197-4.278 9.197-9.518 0-3.188-1.514-6.015-3.848-7.742a9.61 9.61 0 0 0 3.848-7.741c0-5.24-4.1-9.517-9.198-9.517H17.532ZM11.79 9.517c0-3.315 2.588-5.97 5.742-5.97h5.74v11.938h-5.74c-3.154 0-5.742-2.656-5.742-5.968Zm20.68 5.966h-5.74V3.546h5.74c3.156 0 5.741 2.656 5.741 5.97 0 3.313-2.585 5.967-5.742 5.967ZM11.791 25c0-3.313 2.588-5.969 5.742-5.969h5.74V30.97h-5.742c-3.156 0-5.742-2.657-5.742-5.969h.002Zm14.938 0c0-3.313 2.587-5.969 5.742-5.969 3.156 0 5.741 2.654 5.741 5.969 0 3.313-2.585 5.969-5.741 5.969-3.155 0-5.74-2.654-5.74-5.969h-.002ZM11.792 40.483c0-3.312 2.588-5.966 5.742-5.966h5.74v5.966c0 3.315-2.584 5.97-5.74 5.97-3.154 0-5.742-2.655-5.742-5.97Z" fill="#000"/></g><defs><clipPath id="clip0_60_138"><path fill="#fff" d="M0 0h50v50H0z"/></clipPath></defs></svg>