<svg width="157" height="182" fill="none" xmlns="http://www.w3.org/2000/svg"><path d="M87.986 100.948c26.212 0 62.283 55.039 27.232 72.915-25.215 12.86-35.316-20.17-35.316-43.547 0-10.813.454-43.176 1.276-32.406 1.923 25.171-12.07 94.057-45.953 75.446-29.644-16.281 11.882-54.687 21.7-64.813 5.132-5.293 23.304-6.796 17.87-11.646-11.892-10.615-86.474 28.458-66.377-37.976 13.5-44.626 44.675-15.388 60.846 6.076 1.567 2.08 11.47 27.651 10.638 27.85-4.62 1.099-25.05-77.462 2.553-86.587 36.117-11.938 19.981 64.543 13.19 77.472-.796 1.517-11.138 11.975-12.34 9.115-7.667-18.25 63.527-68.418 67.655-4.558 2.432 37.62-61.505 10.564-74.888 6.583" fill="#0D0014"/><path d="M87.986 100.948c26.212 0 62.283 55.039 27.232 72.915-25.215 12.86-35.316-20.17-35.316-43.547 0-10.813.454-43.176 1.276-32.406 1.923 25.171-12.07 94.057-45.953 75.446-29.644-16.281 11.882-54.687 21.7-64.813 5.132-5.293 23.304-6.796 17.87-11.646-11.892-10.615-86.474 28.458-66.377-37.976 13.5-44.626 44.675-15.388 60.846 6.076 1.567 2.08 11.47 27.651 10.638 27.85-4.62 1.099-25.05-77.462 2.553-86.587 36.117-11.938 19.981 64.543 13.19 77.472-.796 1.517-11.138 11.975-12.34 9.115-7.667-18.25 63.527-68.418 67.655-4.558 2.432 37.62-61.505 10.564-74.888 6.583" stroke="#0D0014" stroke-width="10" stroke-linecap="round" stroke-linejoin="round"/></svg>