<svg width="157" height="183" fill="none" xmlns="http://www.w3.org/2000/svg"><path d="M68.041 81.794c-26.212 0-62.282-55.039-27.232-72.915C66.024-3.98 76.126 29.05 76.126 52.426c0 10.813-.454 43.176-1.277 32.406-1.923-25.17 12.07-94.057 45.954-75.446 29.643 16.28-11.883 54.687-21.7 64.813-5.133 5.293-23.305 6.796-17.871 11.646 11.893 10.615 86.474-28.458 66.377 37.976-13.5 44.626-44.675 15.388-60.846-6.076-1.566-2.079-11.47-27.651-10.638-27.85 4.62-1.099 25.05 77.462-2.552 86.587-36.118 11.938-19.981-64.543-13.19-77.472.795-1.517 11.137-11.975 12.339-9.115 7.667 18.249-63.527 68.418-67.654 4.558-2.432-37.62 61.505-10.564 74.887-6.583" stroke="#0D0014" stroke-width="10" stroke-linecap="round" stroke-linejoin="round"/></svg>