<svg width="50" height="50" viewBox="3 5 44 44" fill="none" xmlns="http://www.w3.org/2000/svg">
<path d="M43.3333 8.28958C41.8062 6.7625 39.9687 6 37.8187 6H11.8042C9.65417 6 7.81667 6.7625 6.28958 8.28958C4.7625 9.81667 4 11.6542 4 13.8042V39.8187C4 41.9687 4.7625 43.8062 6.28958 45.3333C7.81667 46.8604 9.65417 47.6229 11.8042 47.6229H17.875C18.2708 47.6229 18.5687 47.6083 18.7687 47.5812C19.0014 47.5346 19.2115 47.4105 19.3646 47.2292C19.5625 47.0208 19.6625 46.7187 19.6625 46.3229L19.6479 44.4792C19.6396 43.3042 19.6354 42.375 19.6354 41.6875L19.0104 41.7958C18.6146 41.8687 18.1146 41.9 17.5083 41.8917C16.8764 41.88 16.2465 41.8166 15.625 41.7021C14.9633 41.5799 14.3405 41.3013 13.8083 40.8896C13.251 40.468 12.8354 39.8866 12.6167 39.2229L12.3458 38.5979C12.1176 38.1049 11.8308 37.6411 11.4917 37.2167C11.1042 36.7104 10.7104 36.3687 10.3125 36.1875L10.125 36.0521C9.99426 35.9584 9.87533 35.8493 9.77083 35.7271C9.67102 35.6136 9.58885 35.4858 9.52708 35.3479C9.47292 35.2208 9.51875 35.1167 9.6625 35.0354C9.80833 34.9521 10.0688 34.9125 10.45 34.9125L10.9917 34.9958C11.3521 35.0667 11.8 35.2833 12.3312 35.6437C12.8689 36.0103 13.318 36.4921 13.6458 37.0542C14.0625 37.7937 14.5625 38.3583 15.15 38.7479C15.7375 39.1354 16.3292 39.3312 16.925 39.3312C17.5208 39.3312 18.0354 39.2854 18.4708 39.1958C18.8919 39.1088 19.3011 38.9717 19.6896 38.7875C19.8521 37.5792 20.2937 36.6458 21.0167 35.9958C20.0799 35.904 19.1516 35.741 18.2396 35.5083C17.3496 35.2638 16.4936 34.909 15.6917 34.4521C14.8526 33.9953 14.1115 33.378 13.5104 32.6354C12.9333 31.9125 12.4583 30.9646 12.0875 29.7917C11.7187 28.6167 11.5333 27.2604 11.5333 25.725C11.5333 23.5396 12.2458 21.6792 13.6729 20.1417C13.0062 18.5 13.0688 16.6562 13.8625 14.6167C14.3875 14.4521 15.1646 14.575 16.1937 14.9812C17.2229 15.3875 17.9771 15.7354 18.4562 16.0229C18.9354 16.3146 19.3187 16.5583 19.6083 16.7562C21.302 16.2849 23.0524 16.048 24.8104 16.0521C26.6 16.0521 28.3333 16.2875 30.0146 16.7562L31.0437 16.1062C31.8354 15.6309 32.6704 15.2319 33.5375 14.9146C34.4958 14.5521 35.225 14.4542 35.7333 14.6167C36.5458 16.6583 36.6167 18.5 35.9479 20.1437C37.375 21.6792 38.0896 23.5396 38.0896 25.7271C38.0896 27.2625 37.9042 28.6229 37.5333 29.8042C37.1646 30.9875 36.6854 31.9354 36.0979 32.65C35.4863 33.3831 34.7421 33.9944 33.9042 34.4521C33.0292 34.9396 32.1792 35.2917 31.3562 35.5083C30.4443 35.7418 29.5159 35.9055 28.5792 35.9979C29.5167 36.8104 29.9875 38.0917 29.9875 39.8438V46.3229C29.9875 46.6292 30.0312 46.8771 30.1229 47.0667C30.165 47.158 30.2251 47.2399 30.2996 47.3076C30.374 47.3752 30.4613 47.4272 30.5562 47.4604C30.7562 47.5312 30.9312 47.5771 31.0854 47.5937C31.2396 47.6146 31.4604 47.6208 31.7479 47.6208H37.8187C39.9687 47.6208 41.8062 46.8583 43.3333 45.3312C44.8583 43.8062 45.6229 41.9667 45.6229 39.8167V13.8042C45.6229 11.6542 44.8583 9.81667 43.3312 8.28958H43.3333Z" fill="black"/>
</svg>
