<svg width="94" height="94" viewBox="0 0 94 94" fill="none" xmlns="http://www.w3.org/2000/svg">
<g clip-path="url(#clip0_120_460)">
<path d="M19.8965 0H24.1343V4.18692H28.0118V0H32.2497V12.6743H28.0118V8.43258H24.1343V12.6743H19.9004V0H19.8965Z" fill="black"/>
<path d="M37.8185 4.20258H34.0898V0H45.7889V4.20258H42.0563V12.6743H37.8185V4.20258Z" fill="black"/>
<path d="M47.6465 0H52.0645L54.7827 4.45325L57.4969 0H61.9149V12.6743H57.6966V6.392L54.7827 10.9001H54.7082L51.7903 6.39592V12.6743H47.6465V0V0Z" fill="black"/>
<path d="M64.0215 0H68.2632V8.48742H74.2166V12.6782H64.0215V0V0Z" fill="black"/>
<path fill-rule="evenodd" clip-rule="evenodd" d="M19.7635 86.4486L11.75 18.4749H82.25L74.2326 86.4408L46.9608 93.9999L19.7635 86.4486ZM35.9667 49.2403L35.2069 40.7019H67.1082L67.8523 32.3673H26.1007L28.3488 57.5789H57.2421L56.2747 68.3889L46.9765 70.9034H46.9687L37.6862 68.3967L37.0908 61.7501H28.717L29.8842 74.8396L46.9608 79.5788L64.0649 74.8396L66.1486 51.4806L66.3523 49.2442H35.9667V49.2403Z" fill="black"/>
</g>
<defs>
<clipPath id="clip0_120_460">
<rect width="94" height="94" fill="white"/>
</clipPath>
</defs>
</svg>
