<svg width="93" height="94" viewBox="0 0 93 94" fill="none" xmlns="http://www.w3.org/2000/svg">
<g clip-path="url(#clip0_120_468)">
<path d="M29.0703 0H39.0601V4.22217H33.2476V8.44433H39.0601V12.6665H29.0703V0Z" fill="black"/>
<path d="M41.0547 0H51.0483V3.67383H45.2358V4.40625H51.0483V12.8506H41.0547V8.99658H46.8672V8.26025H41.0547V0Z" fill="black"/>
<path d="M53.0488 0H63.0347V3.67383H57.2222V4.40625H63.0347V12.8506H53.0488V8.99658H58.8613V8.26025H53.0488V0Z" fill="black"/>
<path fill-rule="evenodd" clip-rule="evenodd" d="M46.4651 93.9999L19.5571 86.4486L11.625 18.4749H81.375L73.4468 86.4408L46.4651 93.9999ZM27.3071 49.2442L28.0472 57.5789H56.6331L55.676 68.3889L46.4768 70.9034H46.469L37.2852 68.3967L36.6963 61.7501H28.4154L29.5701 74.8396L46.4651 79.5788L63.3872 74.8396L65.4487 51.4806L65.6502 49.2442L67.1383 32.3673H25.823L26.5747 40.7059H58.1018L57.35 49.2442H27.3071V49.2442Z" fill="black"/>
</g>
<defs>
<clipPath id="clip0_120_468">
<rect width="93" height="94" fill="white"/>
</clipPath>
</defs>
</svg>
