<svg width="103" height="103" viewBox="0 0 103 103" fill="none" xmlns="http://www.w3.org/2000/svg">
<path d="M93.3438 0H9.65625C4.34531 0 0 4.34531 0 9.65625V93.3438C0 98.6547 4.34531 103 9.65625 103H93.3438C98.6547 103 103 98.6547 103 93.3438V9.65625C103 4.34531 98.6547 0 93.3438 0ZM17.7031 70.8125H14.4844L12.875 61.1562L14.4844 51.5H17.7031L19.3125 61.1562L17.7031 70.8125ZM30.5781 70.8125H27.3594L25.75 57.9375L27.3594 45.0625H30.5781L32.1875 57.9375L30.5781 70.8125ZM43.4531 70.8125H40.2344L38.625 51.5L40.2344 32.1875H43.4531L45.0625 51.5L43.4531 70.8125ZM83.0051 70.8125L52.6909 70.7932C52.3719 70.7563 52.0768 70.606 51.8593 70.3696C51.6419 70.1333 51.5167 69.8267 51.5064 69.5057V34.7818C51.5064 34.1381 51.7253 33.8162 52.5493 33.4943C55.3414 32.4092 58.3475 31.9884 61.3302 32.2653C64.3129 32.5421 67.1902 33.509 69.7349 35.0895C72.2795 36.67 74.4216 38.8207 75.9918 41.3717C77.562 43.9226 78.5173 46.8039 78.7821 49.7876C80.4458 49.0935 82.2552 48.8208 84.0496 48.9938C85.8439 49.1668 87.5679 49.7801 89.0683 50.7793C90.5687 51.7786 91.7993 53.1328 92.6507 54.7218C93.5021 56.3107 93.948 58.0854 93.9489 59.8881C93.9489 65.9264 89.0435 70.8125 83.0051 70.8125V70.8125Z" fill="#C94A14"/>
</svg>
