<svg width="94" height="94" viewBox="0 0 94 94" fill="none" xmlns="http://www.w3.org/2000/svg">
<path fill-rule="evenodd" clip-rule="evenodd" d="M91.8178 69.1265L91.397 70.2171C84.2276 84.1791 71.5226 92.7447 53.4013 93.1225C44.9299 93.2973 36.8583 91.1235 31.5854 88.7602C20.2065 83.6474 10.6351 74.166 5.4082 64.0357C-2.08984 49.5137 -3.44208 29.3128 12.1485 14.2246C12.3892 14.2246 10.2572 17.4964 10.498 17.4964L10.0688 18.8926C-1.16567 54.0655 33.4474 84.2084 67.0943 80.7608C75.1806 79.9319 85.492 75.5036 91.8178 69.1265Z" fill="#21609B"/>
<path fill-rule="evenodd" clip-rule="evenodd" d="M71.4571 54.5826C79.9222 54.6402 88.7641 50.6839 94.0004 45.1295C89.4193 56.7575 76.1554 64.2315 58.369 61.8546C43.4755 59.8618 29.2884 44.8751 27.8273 29.8581C26.7587 18.9292 30.5674 12.4066 36.844 4.49414C34.6629 8.63251 33.8475 11.8237 33.6445 13.8594C31.2603 37.5006 52.5298 54.4581 71.4571 54.5826" fill="#21609B"/>
<path fill-rule="evenodd" clip-rule="evenodd" d="M93.1479 25.2185C91.8323 28.237 84.2557 33.9369 80.9097 34.6496C67.6604 37.4724 59.1754 31.1895 54.7304 24.04C54.0699 22.9724 52.8485 20.0565 52.6298 19.3145C50.906 13.4534 51.6983 4.58841 56.8404 0C55.2914 4.36339 55.0653 9.43116 55.8806 12.7259C56.3746 14.7177 57.8797 18.1956 59.3858 20.3831C62.1258 24.3676 63.8643 25.3357 67.3841 27.452C68.9697 28.4044 70.6705 29.1685 71.4052 29.3778C74.7429 30.3606 81.7899 32.9489 93.1489 25.2185" fill="#21609B"/>
</svg>
