<svg width="50" height="50" viewBox="0 0 50 50" fill="none" xmlns="http://www.w3.org/2000/svg">
<path d="M49.2553 10.2854C47.5158 11.0562 45.647 11.577 43.6824 11.8125C45.7095 10.5995 47.2261 8.69051 47.9491 6.44162C46.0446 7.57285 43.9602 8.36911 41.7866 8.79579C40.3249 7.23509 38.3888 6.20064 36.2789 5.85303C34.1691 5.50542 32.0035 5.86411 30.1183 6.8734C28.2332 7.88269 26.734 9.48613 25.8536 11.4348C24.9731 13.3834 24.7606 15.5682 25.2491 17.65C21.3901 17.4562 17.615 16.4532 14.1687 14.706C10.7225 12.9588 7.68209 10.5065 5.24492 7.50829C4.41159 8.94579 3.93242 10.6125 3.93242 12.3875C3.93149 13.9854 4.32499 15.5588 5.078 16.9681C5.83101 18.3775 6.92026 19.5792 8.24909 20.4666C6.708 20.4176 5.20091 20.0012 3.85326 19.252V19.377C3.8531 21.6182 4.62832 23.7903 6.04739 25.5249C7.46645 27.2596 9.44195 28.4498 11.6387 28.8937C10.2091 29.2806 8.71021 29.3376 7.25534 29.0604C7.87512 30.9887 9.08241 32.675 10.7082 33.8831C12.334 35.0913 14.2968 35.7607 16.322 35.7979C12.8842 38.4966 8.63844 39.9606 4.26784 39.9541C3.49363 39.9543 2.72008 39.9091 1.95117 39.8187C6.38758 42.6712 11.5519 44.185 16.8262 44.1791C34.6803 44.1791 44.4408 29.3916 44.4408 16.5666C44.4408 16.15 44.4303 15.7291 44.4116 15.3125C46.3101 13.9395 47.9489 12.2393 49.2512 10.2916L49.2553 10.2854V10.2854Z" fill="black"/>
</svg>
