<svg width="94" height="94" viewBox="0 0 50 50" fill="none" xmlns="http://www.w3.org/2000/svg">
<g clip-path="url(#clip0_98_82)">
<path d="M41.6026 11.9646C44.2168 13.2534 50.1884 19.7729 49.9954 20.2031C49.7996 20.6324 46.9499 23.0134 46.0913 23.9501C44.2267 28.2294 42.545 31.2937 41.9411 27.8813C41.2546 31.9853 39.785 31.626 39.211 33.6309C38.3735 37.7558 35.964 37.8965 34.8699 38.6665C33.8666 39.6698 32.4292 39.091 31.3198 39.6602C28.502 40.7116 21.8452 40.8975 19.1839 39.6987C17.7603 39.0851 17.0476 40.0399 13.0291 37.287C10.8883 35.1583 11.4935 34.19 10.7525 32.7597C9.52902 30.6498 9.09572 32.0268 8.15255 27.313C7.86691 31.1187 5.8132 29.0825 3.92042 23.9278C3.92042 23.9278 0.19767 20.6276 0.00470106 20.2032C-0.1911 19.7729 5.78038 13.2534 8.39757 11.9646C15.8177 8.60039 33.4236 8.68926 41.6027 11.9646H41.6026ZM28.9219 23.3008C32.9306 24.6586 36.7188 28.9714 36.0932 32.9285C36.0932 34.9833 35.9099 36.3725 35.6108 37.3082C39.0336 35.0623 37.5339 34.3402 38.8956 32.1809C40.1808 29.9878 40.4388 30.7906 41.1028 27.8224C40.7054 24.8511 40.3214 19.5857 39.8468 18.0133C39.4319 16.6627 37.4254 13.8555 36.1308 12.1373C29.8177 9.70049 17.3177 10.4817 14.1106 12.0408C12.8179 13.7483 10.7244 16.6521 10.3 18.0413C9.85138 19.5308 9.44386 24.6518 9.06759 27.681C9.37775 30.5623 11.5512 31.8363 11.8753 33.3616C12.2223 35.8171 13.3434 36.6526 14.8987 37.4915C14.5514 36.5364 14.3488 35.0895 14.3488 32.8706C13.7004 28.2916 18.1496 24.395 21.7531 23.2719C22.7495 20.6271 28.1394 20.8715 28.9218 23.3008H28.9219ZM29.62 34.3365C29.62 31.5389 27.3271 29.2135 25.6099 29.0735L25.7111 24.9592C29.0284 24.7482 28.6434 22.3193 25.2934 22.1489C22.7192 22.1712 20.9122 24.5409 24.862 24.9543L24.859 29.0591C23.1418 29.0591 20.8808 31.4306 20.8808 34.2803C21.1484 31.4206 23.3758 29.9414 25.4111 30.003C27.3938 30.063 29.1832 31.5901 29.62 34.3365ZM16.2339 20.5485C16.2339 19.8604 15.4839 19.428 14.8872 19.7722C14.2903 20.1161 14.2903 20.981 14.8872 21.3249C15.4839 21.669 16.2339 21.2366 16.2339 20.5485V20.5485ZM12.7185 25.0449C10.4341 23.7279 10.4341 20.4176 12.7185 19.1006C15.0029 17.7836 17.8739 19.4388 17.8739 22.0728C17.8739 24.7067 15.0028 26.3618 12.7185 25.0449ZM34.2236 25.0449C31.9392 23.7279 31.9392 20.4176 34.2236 19.1006C36.508 17.7836 39.379 19.4388 39.379 22.0728C39.379 24.7067 36.5079 26.3618 34.2236 25.0449V25.0449ZM35.9446 20.5485C35.9446 19.8604 35.1946 19.428 34.598 19.7722C34.0013 20.1163 34.0011 20.981 34.598 21.3249C35.1948 21.6688 35.9446 21.2366 35.9446 20.5485V20.5485Z" fill="black"/>
</g>
<defs>
<clipPath id="clip0_98_82">
<rect width="50" height="50" fill="white"/>
</clipPath>
</defs>
</svg>
