<svg width="50" height="50" viewBox="0 0 50 50" fill="none" xmlns="http://www.w3.org/2000/svg">
<path fill-rule="evenodd" clip-rule="evenodd" d="M15.5527 2.22087C17.9965 2.10837 18.7757 2.08337 25.0007 2.08337C31.2256 2.08337 32.0048 2.11046 34.4465 2.22087C36.8882 2.33129 38.5548 2.72087 40.0131 3.28546C41.5402 3.86254 42.9256 4.76462 44.0715 5.93129C45.2381 7.07504 46.1382 8.45837 46.7132 9.98754C47.2798 11.4459 47.6673 13.1125 47.7798 15.55C47.8923 17.998 47.9173 18.7771 47.9173 25C47.9173 31.225 47.8902 32.0042 47.7798 34.448C47.6694 36.8855 47.2798 38.5521 46.7132 40.0105C46.1381 41.5398 45.2366 42.9255 44.0715 44.0709C42.9256 45.2375 41.5402 46.1375 40.0131 46.7125C38.5548 47.2792 36.8881 47.6667 34.4506 47.7792C32.0048 47.8917 31.2256 47.9167 25.0007 47.9167C18.7757 47.9167 17.9965 47.8896 15.5527 47.7792C13.1152 47.6688 11.4486 47.2792 9.99023 46.7125C8.4609 46.1375 7.07528 45.236 5.92982 44.0709C4.76394 42.9264 3.86172 41.5415 3.28607 40.0125C2.72148 38.5542 2.33398 36.8875 2.22148 34.45C2.10898 32.0021 2.08398 31.223 2.08398 25C2.08398 18.775 2.11107 17.9959 2.22148 15.5542C2.3319 13.1125 2.72148 11.4459 3.28607 9.98754C3.86257 8.45854 4.76548 7.07361 5.9319 5.92921C7.07573 4.76358 8.45997 3.86138 9.98815 3.28546C11.4465 2.72087 13.1132 2.33337 15.5507 2.22087H15.5527ZM34.2611 6.34587C31.8444 6.23546 31.1194 6.21254 25.0007 6.21254C18.8819 6.21254 18.1569 6.23546 15.7402 6.34587C13.5048 6.44796 12.2923 6.82087 11.484 7.13546C10.4152 7.55212 9.65065 8.04587 8.84857 8.84796C8.08824 9.58765 7.50311 10.4881 7.13607 11.4834C6.82148 12.2917 6.44857 13.5042 6.34648 15.7396C6.23607 18.1563 6.21315 18.8813 6.21315 25C6.21315 31.1188 6.23607 31.8438 6.34648 34.2605C6.44857 36.4959 6.82148 37.7084 7.13607 38.5167C7.50273 39.5105 8.08815 40.4125 8.84857 41.1521C9.58815 41.9125 10.4902 42.498 11.484 42.8646C12.2923 43.1792 13.5048 43.5521 15.7402 43.6542C18.1569 43.7646 18.8798 43.7875 25.0007 43.7875C31.1215 43.7875 31.8444 43.7646 34.2611 43.6542C36.4965 43.5521 37.709 43.1792 38.5173 42.8646C39.5861 42.448 40.3507 41.9542 41.1527 41.1521C41.9132 40.4125 42.4986 39.5105 42.8652 38.5167C43.1798 37.7084 43.5527 36.4959 43.6548 34.2605C43.7652 31.8438 43.7881 31.1188 43.7881 25C43.7881 18.8813 43.7652 18.1563 43.6548 15.7396C43.5527 13.5042 43.1798 12.2917 42.8652 11.4834C42.4486 10.4146 41.9548 9.65004 41.1527 8.84796C40.413 8.08769 39.5125 7.50256 38.5173 7.13546C37.709 6.82087 36.4965 6.44796 34.2611 6.34587V6.34587ZM22.0736 32.0646C23.7083 32.7451 25.5285 32.8369 27.2234 32.3245C28.9183 31.812 30.3827 30.7269 31.3665 29.2547C32.3503 27.7825 32.7924 26.0144 32.6174 24.2523C32.4424 22.4903 31.6611 20.8437 30.4069 19.5938C29.6074 18.7948 28.6407 18.183 27.5763 17.8024C26.512 17.4219 25.3765 17.282 24.2517 17.393C23.1268 17.5039 22.0406 17.8629 21.0711 18.4441C20.1016 19.0252 19.273 19.8141 18.645 20.7539C18.017 21.6937 17.6052 22.7611 17.4392 23.8791C17.2732 24.9972 17.3572 26.1381 17.6851 27.2199C18.013 28.3016 18.5767 29.2971 19.3355 30.1349C20.0943 30.9726 21.0295 31.6317 22.0736 32.0646ZM16.6715 16.6709C17.7653 15.5771 19.0638 14.7094 20.4929 14.1175C21.9221 13.5255 23.4538 13.2208 25.0007 13.2208C26.5475 13.2208 28.0792 13.5255 29.5084 14.1175C30.9375 14.7094 32.236 15.5771 33.3298 16.6709C34.4236 17.7647 35.2913 19.0632 35.8832 20.4923C36.4752 21.9214 36.7799 23.4532 36.7799 25C36.7799 26.5469 36.4752 28.0786 35.8832 29.5078C35.2913 30.9369 34.4236 32.2354 33.3298 33.3292C31.1208 35.5382 28.1247 36.7793 25.0007 36.7793C21.8766 36.7793 18.8805 35.5382 16.6715 33.3292C14.4625 31.1202 13.2214 28.1241 13.2214 25C13.2214 21.876 14.4625 18.8799 16.6715 16.6709V16.6709ZM39.3923 14.975C39.6634 14.7194 39.8804 14.4119 40.0304 14.0708C40.1805 13.7298 40.2607 13.3621 40.2661 12.9895C40.2715 12.6169 40.2022 12.247 40.0621 11.9017C39.922 11.5564 39.7141 11.2428 39.4506 10.9793C39.1871 10.7158 38.8734 10.5079 38.5281 10.3678C38.1828 10.2277 37.813 10.1583 37.4404 10.1638C37.0678 10.1692 36.7001 10.2493 36.359 10.3994C36.018 10.5495 35.7105 10.7665 35.4548 11.0375C34.9575 11.5647 34.6853 12.2649 34.6959 12.9895C34.7064 13.7141 34.999 14.406 35.5114 14.9185C36.0238 15.4309 36.7158 15.7234 37.4404 15.734C38.165 15.7446 38.8652 15.4723 39.3923 14.975V14.975Z" fill="black"/>
</svg>
