<svg width="94" height="94" viewBox="0 0 50 50" fill="none" xmlns="http://www.w3.org/2000/svg">
<g clip-path="url(#clip0_60_138)">
<path fill-rule="evenodd" clip-rule="evenodd" d="M17.532 0C12.4341 0 8.33412 4.27708 8.33412 9.51667C8.33412 12.7021 9.85078 15.5312 12.182 17.2583C10.9805 18.1585 10.0066 19.3277 9.33842 20.6721C8.6702 22.0165 8.32624 23.4987 8.33412 25C8.33412 28.1875 9.85078 31.0146 12.182 32.7417C10.9805 33.6418 10.0066 34.811 9.33842 36.1554C8.6702 37.4998 8.32624 38.982 8.33412 40.4833C8.33412 45.7229 12.4341 50 17.532 50C22.6279 50 26.7299 45.7229 26.7299 40.4833V32.4375C28.3411 33.7808 30.3719 34.5172 32.4695 34.5187C37.5674 34.5167 41.6674 30.2396 41.6674 25C41.6674 21.8125 40.1529 18.9854 37.8195 17.2583C39.021 16.3582 39.9949 15.189 40.6632 13.8446C41.3314 12.5002 41.6753 11.018 41.6674 9.51667C41.6674 4.27708 37.5674 0 32.4695 0H17.532ZM11.7904 9.51667C11.7904 6.20208 14.3779 3.54792 17.532 3.54792H23.2716V15.4854H17.532C14.3779 15.4854 11.7904 12.8292 11.7904 9.51667ZM32.4695 15.4833H26.7299V3.54583H32.4695C35.6258 3.54583 38.2112 6.20208 38.2112 9.51667C38.2112 12.8292 35.6258 15.4833 32.4695 15.4833ZM11.7924 25C11.7924 21.6875 14.38 19.0312 17.5341 19.0312H23.2737V30.9687H17.532C14.3758 30.9687 11.7904 28.3125 11.7904 25H11.7924ZM26.7299 25C26.7299 21.6875 29.3175 19.0312 32.4716 19.0312C35.6279 19.0312 38.2133 21.6854 38.2133 25C38.2133 28.3125 35.6279 30.9687 32.4716 30.9687C29.3175 30.9687 26.732 28.3146 26.732 25H26.7299ZM11.7924 40.4833C11.7924 37.1708 14.38 34.5167 17.5341 34.5167H23.2737V40.4833C23.2737 43.7979 20.6904 46.4521 17.5341 46.4521C14.38 46.4521 11.7924 43.7979 11.7924 40.4833Z" fill="black"/>
</g>
<defs>
<clipPath id="clip0_60_138">
<rect width="50" height="50" fill="white"/>
</clipPath>
</defs>
</svg>
