<svg width="94" height="94" viewBox="0 0 50 50" fill="none" xmlns="http://www.w3.org/2000/svg">
<path d="M37.4993 45.8332H12.4993C10.2892 45.8332 8.1696 44.9552 6.60679 43.3924C5.04399 41.8296 4.16602 39.71 4.16602 37.4998V12.4998C4.16602 10.2897 5.04399 8.17008 6.60679 6.60728C8.1696 5.04448 10.2892 4.1665 12.4993 4.1665H37.4993C39.7095 4.1665 41.8291 5.04448 43.3919 6.60728C44.9547 8.17008 45.8327 10.2897 45.8327 12.4998V37.4998C45.8327 39.71 44.9547 41.8296 43.3919 43.3924C41.8291 44.9552 39.7095 45.8332 37.4993 45.8332ZM12.4993 8.33317C11.3943 8.33317 10.3345 8.77216 9.55307 9.55356C8.77167 10.335 8.33268 11.3948 8.33268 12.4998V37.4998C8.33268 38.6049 8.77167 39.6647 9.55307 40.4461C10.3345 41.2275 11.3943 41.6665 12.4993 41.6665H37.4993C38.6044 41.6665 39.6642 41.2275 40.4456 40.4461C41.227 39.6647 41.666 38.6049 41.666 37.4998V12.4998C41.666 11.3948 41.227 10.335 40.4456 9.55356C39.6642 8.77216 38.6044 8.33317 37.4993 8.33317H12.4993ZM32.8368 34.9498C31.9359 34.9861 31.037 34.8386 30.195 34.5163C29.3529 34.1939 28.5853 33.7035 27.9389 33.0748C26.5856 31.532 25.8914 29.5198 26.0056 27.4707C25.9637 25.4791 26.6741 23.5449 27.9952 22.054C28.6858 21.3239 29.523 20.748 30.4518 20.3642C31.3807 19.9804 32.3802 19.7973 33.3848 19.8269H33.8702V15.6603C33.8702 15.3353 34.1348 15.0707 34.4598 15.0686H37.2035C37.3558 15.0629 37.5047 15.115 37.6202 15.2144C37.6766 15.2678 37.7209 15.3326 37.7504 15.4044C37.7798 15.4762 37.7937 15.5535 37.791 15.6311V31.629C37.7806 32.1811 37.8098 32.7332 37.8743 33.2811V33.3332C37.8775 33.4656 37.8365 33.5954 37.7577 33.7019C37.6896 33.7855 37.6034 33.8525 37.5056 33.8978C36.0597 34.5879 34.4785 34.948 32.8764 34.9519L32.8368 34.9498ZM30.9285 24.2915L30.9181 24.304C30.2583 25.1724 29.9262 26.2459 29.9806 27.3353C29.8951 28.4703 30.2229 29.5979 30.9035 30.5103C31.4598 31.1228 32.2618 31.4561 33.0889 31.4144C33.3514 31.4186 33.6139 31.3915 33.8702 31.3353V23.3165C33.6757 23.2749 33.4773 23.2546 33.2785 23.2561C32.834 23.2442 32.3924 23.3315 31.9859 23.5117C31.5794 23.6919 31.2182 23.9604 30.9285 24.2978V24.2915ZM25.4681 34.7082H22.4452C22.2898 34.7183 22.1351 34.6796 22.0029 34.5974C21.8706 34.5152 21.7674 34.3937 21.7077 34.2498L21.2702 33.3332L21.2598 33.3103L20.8327 32.4582L20.6993 32.1811C20.0348 30.8103 19.3493 29.3978 18.6618 27.9436C17.7059 30.0615 16.7218 32.1665 15.7098 34.2582V34.279L15.6993 34.2978C15.6296 34.4146 15.5323 34.5126 15.416 34.5832C15.2977 34.6538 15.1621 34.6899 15.0243 34.6873H12.1681C12.0486 34.6932 11.9305 34.66 11.8317 34.5927C11.7328 34.5254 11.6585 34.4277 11.6202 34.3144C11.5951 34.2282 11.5901 34.1373 11.6057 34.0488C11.6212 33.9603 11.6568 33.8766 11.7098 33.804L16.3535 24.9269L11.8618 15.9394C11.8014 15.852 11.767 15.7492 11.7626 15.643C11.7582 15.5368 11.7839 15.4316 11.8368 15.3394C11.8878 15.2558 11.9594 15.1868 12.0448 15.139C12.1302 15.0912 12.2265 15.0662 12.3243 15.0665H15.3118C15.457 15.0587 15.6014 15.092 15.7285 15.1623C15.8577 15.2415 15.9577 15.3603 16.0118 15.5019C17.1285 17.8457 18.0702 19.8769 18.8931 21.679C19.916 19.3873 21.0035 17.0582 21.7327 15.5144L21.7431 15.4915L21.7556 15.4707V15.4478C21.8078 15.3586 21.8731 15.2779 21.9493 15.2082C22.0783 15.1006 22.2419 15.0436 22.4098 15.0478H25.2077C25.3147 15.0449 25.4202 15.0731 25.5115 15.1289C25.6028 15.1847 25.676 15.2658 25.7223 15.3623C25.7591 15.4508 25.7739 15.5468 25.7656 15.6422C25.7572 15.7376 25.7259 15.8296 25.6743 15.9103L21.1806 24.6332L25.9348 33.7998C25.9848 33.8794 26.0162 33.9693 26.0266 34.0627C26.0371 34.1561 26.0263 34.2507 25.9952 34.3394C25.9559 34.4473 25.8841 34.5403 25.7897 34.6056C25.6953 34.6709 25.5829 34.7053 25.4681 34.704V34.7082Z" fill="black"/>
</svg>
