<svg width="94" height="94" viewBox="0 0 50 50" fill="none" xmlns="http://www.w3.org/2000/svg">
<g clip-path="url(#clip0_60_136)">
<path d="M28.4835 18.4579C27.5554 17.7251 24.9429 18.9547 24.2116 20.786C23.2835 23.1141 21.9085 26.5157 20.5569 27.9969C19.1335 29.5672 18.9944 28.3547 19.1335 27.4516C19.4679 25.3282 21.5429 20.4126 22.6741 19.0204C22.2507 18.3938 19.5085 18.4829 17.596 21.4532C16.8882 22.5688 15.2601 26.2954 13.4538 29.2329C13.0554 29.8672 12.5585 29.4204 12.9413 27.9391C13.3726 26.2219 14.6507 21.5016 16.2866 17.7829C20.5913 16.936 25.1491 16.3344 28.6476 16.3266C29.1194 16.1969 29.4366 15.7735 28.6476 15.7485C25.6366 15.6501 21.1116 16.0094 16.8726 16.5376C17.6866 14.9094 18.5648 13.6157 19.4523 13.0704C18.4835 12.4594 16.5304 12.6954 15.4069 14.3563C14.8618 15.1838 14.3752 16.0484 13.9507 16.9438C10.8413 17.4329 8.18819 17.9766 6.83819 18.4813C5.43819 19.0188 5.59288 20.711 6.44756 20.3938C8.21319 19.7344 10.6054 19.0422 13.2585 18.4329C11.5663 22.2501 10.2476 26.7501 9.93038 28.5813C9.14131 33.0329 11.8991 33.0079 13.2507 31.2594C14.7069 29.3313 17.7585 22.5844 18.2319 21.8688C18.371 21.6329 18.5663 21.7547 18.4601 21.9751C15.0585 28.7782 15.3429 31.4063 18.1101 30.8204C19.3554 30.5516 21.5038 28.4204 22.0648 27.3126C22.1788 27.0438 22.4226 27.0688 22.3663 27.1829C20.2023 32.7985 17.4585 37.3391 15.6116 38.7626C13.9351 40.0407 12.6898 37.2563 18.6304 33.261C19.5101 32.6672 19.0944 31.8532 18.1101 32.1297C15.0413 32.6188 6.26944 35.4016 2.41163 38.0704C2.11788 38.2735 1.85069 38.436 1.86631 38.8594C1.87413 39.1032 2.29756 39.0141 2.50069 38.8844C7.48975 35.8985 11.5663 34.7266 16.2538 33.7501C16.3101 33.7751 16.3929 33.7907 16.4491 33.7579C16.6694 33.7094 16.6523 33.8235 16.5148 33.9126C16.2878 34.051 16.0512 34.1732 15.8069 34.2782C12.6491 35.5157 10.7444 38.2329 11.421 39.6251C11.9913 40.8219 15.0835 40.3907 16.5398 39.6001C20.1288 37.6547 22.7335 33.8376 24.5148 28.5735C26.0694 23.9016 28.0304 18.6126 28.4866 18.4579H28.4835ZM7.69913 33.5282C9.00069 31.9813 9.14756 30.3782 8.146 27.4001C7.51163 25.5204 6.45381 24.0719 7.22569 22.9001C8.05538 21.6547 9.81319 22.8594 8.34912 24.5282L8.64288 24.7313C10.4007 24.9344 11.2632 22.5266 9.95381 21.8422C6.49444 20.036 3.46788 23.511 4.80225 27.5313C5.37256 29.2329 6.17725 31.0391 5.52725 32.4797C4.96631 33.7079 3.8835 34.4329 3.1585 34.4579C1.64444 34.5391 2.65381 31.0641 4.396 30.2016C4.55069 30.1282 4.76163 30.0219 4.5585 29.7704C2.41006 29.5266 1.14913 30.5188 0.424125 31.9032C-1.68369 35.9313 4.43663 37.4282 7.69913 33.5313V33.5282ZM49.3257 29.2313C43.4913 28.4657 30.9007 29.4829 25.3429 30.9641C23.6913 31.3954 24.146 32.2657 24.9851 32.1032C25.0007 32.1032 25.3601 32.0141 25.3679 32.0141C29.9335 31.1266 41.0085 30.3454 47.471 31.5829C48.2523 31.7219 50.5804 29.3938 49.3273 29.2313H49.3257ZM30.1116 28.5485C31.7397 27.7344 34.1569 22.6969 35.7429 19.9391C35.8569 19.736 36.0601 19.8985 35.946 20.0376C31.9257 26.9547 33.6351 27.761 35.221 27.6547C37.3444 27.5329 39.3069 24.4735 39.7382 23.7891C39.9179 23.5204 40.0226 23.7407 39.9179 23.9282C39.8116 24.2454 39.446 24.8079 39.1038 25.5719C38.6147 26.6547 39.1288 27.0688 39.5507 27.2641C40.2101 27.5813 42.0163 27.3782 42.2929 26.2719C40.4866 26.2313 44.8163 17.711 45.2554 17.1891C44.0507 16.4891 42.1788 17.2547 41.3241 18.9313C39.5101 22.5282 37.9788 25.4329 37.0273 25.4829C35.171 25.5813 39.1679 17.4594 39.8101 17.2063C39.4194 16.6282 36.8882 16.8719 35.4726 19.0626C34.9679 19.8516 31.8679 25.3454 31.1023 26.2485C29.7507 27.8516 29.6538 26.4766 30.0272 24.8735C30.1569 24.3282 30.3772 23.6282 30.6538 22.8547C31.5491 20.8454 32.5007 20.2016 33.0866 19.5594C37.0179 15.1969 39.2632 11.6579 38.3757 10.2735C37.5866 9.036 34.9491 9.58131 33.2647 12.1297C30.1476 16.8016 27.2757 23.1969 26.9007 26.1188C26.5429 29.0485 28.6663 29.2594 30.1069 28.5516L30.1116 28.5485ZM45.4757 21.6797C45.9726 22.9001 46.721 24.1047 46.2726 25.1797C45.9069 26.0907 45.4257 26.4735 44.8898 26.5626C44.1413 26.6844 44.3444 24.3329 45.6304 23.6329C45.7444 23.5766 45.9069 23.2672 45.7523 23.0876C44.1241 22.9985 43.2132 23.7719 42.7163 24.8047C41.2757 27.8235 45.971 28.6454 48.2741 25.6844C49.1851 24.5047 49.2257 23.3329 48.3476 21.2079C47.7866 19.8563 46.9398 18.8563 47.4679 17.961C48.046 17.0251 49.4132 17.8391 48.3882 19.0922L48.6163 19.2219C49.9507 19.2954 50.496 17.5204 49.4788 17.0735C46.8007 15.9266 44.2944 18.8157 45.4741 21.6797H45.4757ZM31.7632 19.9876C31.9022 19.6704 31.9913 19.5813 32.2351 19.0438C33.6351 15.9672 35.3929 12.7204 36.5976 11.2157C37.346 10.4266 38.4038 11.4922 36.4991 14.4141C35.4041 16.1141 34.1359 17.696 32.7147 19.1344V19.1501C32.3647 19.5407 32.0476 19.8751 31.9007 20.061C31.8022 20.1907 31.6897 20.1672 31.7616 19.9876H31.7632Z" fill="black"/>
</g>
<defs>
<clipPath id="clip0_60_136">
<rect width="50" height="50" fill="white"/>
</clipPath>
</defs>
</svg>
