<svg width="51" height="50" viewBox="0 0 51 50" fill="none" xmlns="http://www.w3.org/2000/svg">
<path fill-rule="evenodd" clip-rule="evenodd" d="M2.70703 5.91255C2.70703 4.89699 3.11046 3.92302 3.82857 3.20492C4.54668 2.48681 5.52064 2.08338 6.5362 2.08338H44.707C45.2103 2.08256 45.7088 2.18101 46.174 2.3731C46.6392 2.56519 47.0619 2.84715 47.418 3.20283C47.774 3.55851 48.0565 3.98093 48.249 4.4459C48.4416 4.91087 48.5406 5.40926 48.5404 5.91255V44.0834C48.5409 44.5868 48.4422 45.0853 48.2499 45.5505C48.0576 46.0157 47.7754 46.4384 47.4196 46.7944C47.0637 47.1505 46.6412 47.4329 46.1761 47.6254C45.711 47.818 45.2125 47.917 44.7091 47.9167H6.5362C6.03317 47.9167 5.53507 47.8176 5.07036 47.625C4.60565 47.4325 4.18343 47.1502 3.82783 46.7944C3.47223 46.4386 3.19022 46.0163 2.99791 45.5515C2.8056 45.0866 2.70676 44.5885 2.70703 44.0855V5.91255ZM20.8487 19.5584H27.0549V22.675C27.9508 20.8834 30.2424 19.2709 33.6862 19.2709C40.2883 19.2709 41.8529 22.8396 41.8529 29.3875V41.5167H35.1716V30.8792C35.1716 27.15 34.2758 25.0459 32.0008 25.0459C28.8445 25.0459 27.532 27.3146 27.532 30.8792V41.5167H20.8487V19.5584ZM9.39037 41.2313H16.0737V19.2709H9.39037V41.2292V41.2313ZM17.0299 12.1084C17.0425 12.6806 16.9407 13.2496 16.7304 13.782C16.5202 14.3143 16.2057 14.7993 15.8054 15.2084C15.4052 15.6176 14.9272 15.9427 14.3996 16.1646C13.8721 16.3866 13.3054 16.5009 12.7331 16.5009C12.1607 16.5009 11.5941 16.3866 11.0665 16.1646C10.5389 15.9427 10.061 15.6176 9.66072 15.2084C9.26047 14.7993 8.94598 14.3143 8.7357 13.782C8.52542 13.2496 8.4236 12.6806 8.4362 12.1084C8.46093 10.9852 8.9245 9.91628 9.72763 9.13064C10.5308 8.34501 11.6096 7.90508 12.7331 7.90508C13.8566 7.90508 14.9354 8.34501 15.7385 9.13064C16.5416 9.91628 17.0052 10.9852 17.0299 12.1084V12.1084Z" fill="black"/>
</svg>
