<svg width="157" height="183" viewBox="0 0 157 183" fill="none" xmlns="http://www.w3.org/2000/svg">
<path d="M68.041 81.7938C41.8294 81.7938 5.75877 26.7551 40.8093 8.87926C66.0244 -3.98075 76.1255 29.0489 76.1255 52.4256C76.1255 63.2394 75.6719 95.6016 74.849 84.8319C72.9261 59.6612 86.9187 -9.2249 120.803 9.3857C150.446 25.6669 108.92 64.0732 99.1024 74.1986C93.9699 79.4919 75.7982 80.9953 81.2316 85.8447C93.1246 96.4595 167.706 57.3874 147.609 123.821C134.109 168.447 102.934 139.209 86.7629 117.745C85.1967 115.666 75.2926 90.0936 76.1255 89.8954C80.7445 88.7962 101.175 167.357 73.5725 176.482C37.4551 188.42 53.5916 111.939 60.3821 99.0097C61.1785 97.4935 71.5201 87.0355 72.7216 89.8954C80.389 108.144 9.19526 158.313 5.06757 94.4525C2.63561 56.8329 66.5727 83.8888 79.9551 87.8699" stroke="#0D0014" stroke-width="10" stroke-linecap="round" stroke-linejoin="round"/>
</svg>
