<svg width="157" height="182" viewBox="0 0 157 182" fill="none" xmlns="http://www.w3.org/2000/svg">
<path d="M87.9863 100.948C114.198 100.948 150.269 155.987 115.218 173.863C90.003 186.723 79.9019 153.693 79.9019 130.316C79.9019 119.503 80.3555 87.1404 81.1784 97.9101C83.1013 123.081 69.1087 191.967 35.2246 173.356C5.58086 157.075 47.1073 118.669 56.925 108.543C62.0574 103.25 80.2291 101.747 74.7957 96.8972C62.9028 86.2825 -11.679 125.355 8.4182 58.9209C21.9183 14.2951 53.0933 43.5329 69.2645 64.9974C70.8307 67.0762 80.7348 92.6484 79.9019 92.8466C75.2829 93.9458 54.8521 15.3848 82.4549 6.26039C118.572 -5.6784 102.436 70.8027 95.6452 83.7323C94.8489 85.2485 84.5073 95.7065 83.3058 92.8466C75.6383 74.5975 146.832 24.4292 150.96 88.2894C153.392 125.909 89.4547 98.8532 76.0722 94.872" fill="#0D0014"/>
<path d="M87.9863 100.948C114.198 100.948 150.269 155.987 115.218 173.863C90.003 186.723 79.9019 153.693 79.9019 130.316C79.9019 119.503 80.3555 87.1404 81.1784 97.9101C83.1013 123.081 69.1087 191.967 35.2246 173.356C5.58086 157.075 47.1073 118.669 56.925 108.543C62.0574 103.25 80.2291 101.747 74.7957 96.8972C62.9028 86.2825 -11.679 125.355 8.4182 58.9209C21.9183 14.2951 53.0933 43.5329 69.2645 64.9974C70.8307 67.0762 80.7348 92.6484 79.9019 92.8466C75.2829 93.9458 54.8521 15.3848 82.4549 6.26039C118.572 -5.6784 102.436 70.8027 95.6452 83.7323C94.8489 85.2485 84.5073 95.7065 83.3058 92.8466C75.6383 74.5975 146.832 24.4292 150.96 88.2894C153.392 125.909 89.4547 98.8532 76.0722 94.872" stroke="#0D0014" stroke-width="10" stroke-linecap="round" stroke-linejoin="round"/>
</svg>
